<svg xmlns="http://www.w3.org/2000/svg" viewBox="0 0 496 680" shape-rendering="crispEdges">
<defs>
<pattern id="hF" patternUnits="userSpaceOnUse" width="9" height="9" patternTransform="rotate(45)"><path d="M0 0V9" stroke="currentColor" stroke-width="4" opacity=".95"/></pattern>
<pattern id="hB" patternUnits="userSpaceOnUse" width="12" height="12" patternTransform="rotate(-45)"><path d="M0 0V12" stroke="currentColor" stroke-width="3.5" opacity=".93"/><path d="M6.5 0V12" stroke="currentColor" stroke-width="1.1" opacity=".6"/></pattern>
<clipPath id="cHF"><path d="M184 152h16v8h-16zM176 160h16v8h-16zM408 200h16v8h-16zM400 208h16v8h-16zM112 240h8v8h-8zM112 248h8v8h-8zM128 456h8v8h-8zM432 456h8v8h-8zM136 464h8v8h-8zM424 464h16v8h-16zM136 472h8v8h-8zM424 472h16v8h-16zM120 480h24v8h-24zM416 480h24v8h-24zM112 488h24v8h-24zM408 488h32v8h-32zM112 496h16v8h-16zM104 504h16v8h-16zM88 512h24v8h-24zM88 520h16v8h-16zM48 560h8v8h-8zM48 568h16v8h-16zM48 576h16v8h-16zM48 584h8v8h-8zM320 584h8v8h-8zM320 592h48v8h-48zM328 600h48v8h-48zM360 608h16v8h-16zM320 616h56v8h-56zM320 624h48v8h-48z"/></clipPath>
<clipPath id="cHB"><path d="M328 208h8v8h-8zM320 216h16v8h-16zM320 224h16v8h-16zM320 232h16v8h-16zM320 240h16v8h-16zM320 248h16v8h-16zM320 256h16v8h-16zM320 264h16v8h-16zM320 272h8v8h-8zM304 528h16v8h-16zM304 536h16v8h-16zM304 544h16v8h-16zM312 552h8v8h-8zM256 600h8v8h-8zM256 608h8v8h-8zM256 616h8v8h-8z"/></clipPath>
</defs>
<path fill="#ff1a1a" opacity=".75" d="M296 40h8v8h-8zM288 48h8v8h-8zM288 56h8v8h-8zM280 64h8v8h-8zM272 72h8v8h-8zM264 80h8v8h-8zM264 88h8v8h-8zM256 96h8v8h-8zM248 104h8v8h-8zM216 112h8v8h-8zM360 112h8v8h-8zM216 120h8v8h-8zM208 128h8v8h-8zM208 136h8v8h-8zM200 144h8v8h-8zM400 144h8v8h-8zM192 152h8v8h-8zM392 152h8v8h-8zM184 160h8v8h-8zM168 168h8v8h-8zM160 176h8v8h-8zM328 176h8v8h-8zM160 184h8v8h-8zM320 184h8v8h-8zM136 192h8v8h-8zM128 200h8v8h-8zM128 208h8v8h-8zM328 208h8v8h-8zM384 208h8v8h-8zM128 216h8v8h-8zM128 224h8v8h-8zM224 224h8v8h-8zM128 232h8v8h-8zM216 232h8v8h-8zM112 240h8v8h-8zM216 240h8v8h-8zM112 248h8v8h-8zM104 256h8v8h-8zM104 264h8v8h-8zM104 272h8v8h-8zM320 272h8v8h-8zM104 280h8v8h-8zM104 288h8v8h-8zM104 296h8v8h-8zM104 304h8v8h-8zM288 304h8v8h-8zM96 312h8v8h-8zM288 312h8v8h-8zM80 320h8v8h-8zM80 328h8v8h-8zM80 336h8v8h-8zM80 344h8v8h-8zM80 352h8v8h-8zM160 352h8v8h-8zM288 352h8v8h-8zM80 360h8v8h-8zM160 360h8v8h-8zM288 360h8v8h-8zM80 368h8v8h-8zM160 368h8v8h-8zM296 368h8v8h-8zM384 368h8v8h-8zM80 376h8v8h-8zM304 376h8v8h-8zM384 376h8v8h-8zM80 384h8v8h-8zM320 384h8v8h-8zM384 384h8v8h-8zM80 392h8v8h-8zM320 392h8v8h-8zM80 400h8v8h-8zM328 400h8v8h-8zM96 408h8v8h-8zM336 408h8v8h-8zM104 416h8v8h-8zM360 416h8v8h-8zM400 416h8v8h-8zM104 424h8v8h-8zM360 424h8v8h-8zM384 424h8v8h-8zM104 432h8v8h-8zM176 432h8v8h-8zM368 432h8v8h-8zM104 440h8v8h-8zM176 440h8v8h-8zM376 440h8v8h-8zM112 448h8v8h-8zM392 448h8v8h-8zM128 456h8v8h-8zM392 456h8v8h-8zM136 464h8v8h-8zM376 464h8v8h-8zM136 472h8v8h-8zM368 472h8v8h-8zM136 480h8v8h-8zM240 480h8v8h-8zM368 480h8v8h-8zM128 488h8v8h-8zM248 488h8v8h-8zM376 488h8v8h-8zM120 496h8v8h-8zM248 496h8v8h-8zM112 504h8v8h-8zM248 504h8v8h-8zM304 504h8v8h-8zM104 512h8v8h-8zM248 512h8v8h-8zM72 520h8v8h-8zM96 520h8v8h-8zM248 520h8v8h-8zM72 528h8v8h-8zM248 528h8v8h-8zM64 536h8v8h-8zM248 536h8v8h-8zM48 544h8v8h-8zM248 544h8v8h-8zM40 552h8v8h-8zM248 552h8v8h-8zM48 560h8v8h-8zM248 560h8v8h-8zM56 568h8v8h-8zM248 568h8v8h-8zM56 576h8v8h-8zM248 576h8v8h-8zM48 584h8v8h-8zM248 584h8v8h-8zM48 592h8v8h-8zM248 592h8v8h-8zM64 600h8v8h-8zM256 600h8v8h-8zM72 608h8v8h-8zM256 608h8v8h-8zM80 616h8v8h-8zM256 616h8v8h-8zM88 624h8v8h-8zM256 624h8v8h-8z"/>
<path fill="#0033ff" opacity=".75" d="M400 40h8v8h-8zM408 48h8v8h-8zM408 56h8v8h-8zM416 64h8v8h-8zM424 72h8v8h-8zM440 80h8v8h-8zM440 88h8v8h-8zM440 96h8v8h-8zM440 104h8v8h-8zM344 112h8v8h-8zM432 112h8v8h-8zM440 120h8v8h-8zM456 128h8v8h-8zM456 136h8v8h-8zM384 144h8v8h-8zM456 144h8v8h-8zM392 152h8v8h-8zM456 152h8v8h-8zM456 160h8v8h-8zM448 168h8v8h-8zM312 176h8v8h-8zM440 176h8v8h-8zM320 184h8v8h-8zM432 184h8v8h-8zM432 192h8v8h-8zM408 200h8v8h-8zM328 208h8v8h-8zM344 208h8v8h-8zM400 208h8v8h-8zM320 216h8v8h-8zM216 224h8v8h-8zM320 224h8v8h-8zM216 232h8v8h-8zM320 232h8v8h-8zM216 240h8v8h-8zM320 240h8v8h-8zM320 248h8v8h-8zM320 256h8v8h-8zM320 264h8v8h-8zM320 272h8v8h-8zM336 272h8v8h-8zM336 280h8v8h-8zM344 288h8v8h-8zM352 296h8v8h-8zM280 304h8v8h-8zM352 304h8v8h-8zM280 312h8v8h-8zM360 312h8v8h-8zM368 320h8v8h-8zM376 328h8v8h-8zM376 336h8v8h-8zM376 344h8v8h-8zM160 352h8v8h-8zM272 352h8v8h-8zM384 352h8v8h-8zM160 360h8v8h-8zM264 360h8v8h-8zM400 360h8v8h-8zM160 368h8v8h-8zM264 368h8v8h-8zM376 368h8v8h-8zM408 368h8v8h-8zM264 376h8v8h-8zM384 376h8v8h-8zM416 376h8v8h-8zM264 384h8v8h-8zM384 384h8v8h-8zM416 384h8v8h-8zM264 392h8v8h-8zM432 392h8v8h-8zM272 400h8v8h-8zM440 400h8v8h-8zM288 408h8v8h-8zM448 408h8v8h-8zM296 416h8v8h-8zM384 416h8v8h-8zM440 416h8v8h-8zM296 424h8v8h-8zM384 424h8v8h-8zM440 424h8v8h-8zM176 432h8v8h-8zM296 432h8v8h-8zM440 432h8v8h-8zM176 440h8v8h-8zM304 440h8v8h-8zM440 440h8v8h-8zM320 448h8v8h-8zM440 448h8v8h-8zM320 456h8v8h-8zM432 456h8v8h-8zM320 464h8v8h-8zM424 464h8v8h-8zM320 472h8v8h-8zM424 472h8v8h-8zM216 480h8v8h-8zM320 480h8v8h-8zM416 480h8v8h-8zM216 488h8v8h-8zM320 488h8v8h-8zM408 488h8v8h-8zM216 496h8v8h-8zM320 496h8v8h-8zM216 504h8v8h-8zM288 504h8v8h-8zM320 504h8v8h-8zM216 512h8v8h-8zM320 512h8v8h-8zM88 520h8v8h-8zM216 520h8v8h-8zM320 520h8v8h-8zM208 528h8v8h-8zM304 528h8v8h-8zM168 536h8v8h-8zM304 536h8v8h-8zM160 544h8v8h-8zM304 544h8v8h-8zM160 552h8v8h-8zM312 552h8v8h-8zM144 560h8v8h-8zM320 560h8v8h-8zM136 568h8v8h-8zM320 568h8v8h-8zM128 576h8v8h-8zM320 576h8v8h-8zM136 584h8v8h-8zM320 584h8v8h-8zM152 592h8v8h-8zM320 592h8v8h-8zM160 600h8v8h-8zM328 600h8v8h-8zM160 608h8v8h-8zM360 608h8v8h-8zM160 616h8v8h-8zM320 616h8v8h-8zM152 624h8v8h-8zM320 624h8v8h-8z"/>
<path fill="#0a0000" d="M314 96h40v8h-40zM402 96h16v8h-16zM306 104h56v8h-56zM394 104h24v8h-24zM306 112h16v8h-16zM346 112h16v8h-16zM394 112h16v8h-16zM306 120h56v8h-56zM394 120h24v8h-24zM314 128h80v8h-80zM402 128h16v8h-16zM346 136h56v8h-56zM346 144h16v8h-16zM386 144h16v8h-16zM346 152h24v8h-24zM378 152h24v8h-24zM282 160h40v8h-40zM354 160h40v8h-40zM274 168h56v8h-56zM362 168h24v8h-24zM274 176h16v8h-16zM314 176h16v8h-16zM274 184h24v8h-24zM306 184h24v8h-24zM282 192h40v8h-40zM290 200h24v8h-24zM194 208h24v8h-24zM186 216h40v8h-40zM186 224h8v8h-8zM210 224h16v8h-16zM178 232h16v8h-16zM202 232h24v8h-24zM178 240h16v8h-16zM202 240h16v8h-16zM178 248h40v8h-40zM186 256h24v8h-24zM130 336h24v8h-24zM122 344h40v8h-40zM122 352h16v8h-16zM146 352h16v8h-16zM346 352h16v8h-16zM122 360h16v8h-16zM146 360h16v8h-16zM338 360h40v8h-40zM122 368h16v8h-16zM146 368h16v8h-16zM338 368h16v8h-16zM370 368h8v8h-8zM122 376h40v8h-40zM338 376h24v8h-24zM370 376h16v8h-16zM130 384h24v8h-24zM346 384h16v8h-16zM370 384h16v8h-16zM346 392h40v8h-40zM354 400h40v8h-40zM354 408h48v8h-48zM146 416h24v8h-24zM346 416h16v8h-16zM386 416h16v8h-16zM138 424h40v8h-40zM346 424h16v8h-16zM370 424h32v8h-32zM138 432h16v8h-16zM162 432h16v8h-16zM354 432h40v8h-40zM138 440h16v8h-16zM162 440h16v8h-16zM362 440h16v8h-16zM138 448h40v8h-40zM146 456h24v8h-24zM258 488h40v8h-40zM250 496h48v8h-48zM250 504h16v8h-16zM290 504h8v8h-8zM250 512h48v8h-48zM258 520h40v8h-40zM98 560h16v8h-16zM90 568h24v8h-24zM90 576h16v8h-16zM90 584h24v8h-24zM98 592h16v8h-16z"/>
<path fill="#00000a" d="M358 101h40v8h-40zM446 101h16v8h-16zM350 109h56v8h-56zM438 109h24v8h-24zM350 117h16v8h-16zM390 117h16v8h-16zM438 117h16v8h-16zM350 125h56v8h-56zM438 125h24v8h-24zM358 133h80v8h-80zM446 133h16v8h-16zM390 141h56v8h-56zM390 149h16v8h-16zM430 149h16v8h-16zM390 157h24v8h-24zM422 157h24v8h-24zM326 165h40v8h-40zM398 165h40v8h-40zM318 173h56v8h-56zM406 173h24v8h-24zM318 181h16v8h-16zM358 181h16v8h-16zM318 189h24v8h-24zM350 189h24v8h-24zM326 197h40v8h-40zM334 205h24v8h-24zM238 213h24v8h-24zM230 221h40v8h-40zM230 229h8v8h-8zM254 229h16v8h-16zM222 237h16v8h-16zM246 237h24v8h-24zM222 245h16v8h-16zM246 245h16v8h-16zM222 253h40v8h-40zM230 261h24v8h-24zM174 341h24v8h-24zM166 349h40v8h-40zM166 357h16v8h-16zM190 357h16v8h-16zM390 357h16v8h-16zM166 365h16v8h-16zM190 365h16v8h-16zM382 365h40v8h-40zM166 373h16v8h-16zM190 373h16v8h-16zM382 373h16v8h-16zM414 373h8v8h-8zM166 381h40v8h-40zM382 381h24v8h-24zM414 381h16v8h-16zM174 389h24v8h-24zM390 389h16v8h-16zM414 389h16v8h-16zM390 397h40v8h-40zM398 405h40v8h-40zM398 413h48v8h-48zM190 421h24v8h-24zM390 421h16v8h-16zM430 421h16v8h-16zM182 429h40v8h-40zM390 429h16v8h-16zM414 429h32v8h-32zM182 437h16v8h-16zM206 437h16v8h-16zM398 437h40v8h-40zM182 445h16v8h-16zM206 445h16v8h-16zM406 445h16v8h-16zM182 453h40v8h-40zM190 461h24v8h-24zM302 493h40v8h-40zM294 501h48v8h-48zM294 509h16v8h-16zM334 509h8v8h-8zM294 517h48v8h-48zM302 525h40v8h-40zM142 565h16v8h-16zM134 573h24v8h-24zM134 581h16v8h-16zM134 589h24v8h-24zM142 597h16v8h-16z"/>
<path fill="currentColor" d="M304 40h96v8h-96zM296 48h112v8h-112zM296 56h112v8h-112zM288 64h128v8h-128zM280 72h144v8h-144zM272 80h168v8h-168zM272 88h168v8h-168zM264 96h72v8h-72zM376 96h48v8h-48zM256 104h72v8h-72zM384 104h32v8h-32zM224 112h104v8h-104zM384 112h32v8h-32zM224 120h104v8h-104zM384 120h32v8h-32zM216 128h120v8h-120zM416 128h8v8h-8zM440 128h16v8h-16zM216 136h152v8h-152zM424 136h32v8h-32zM208 144h160v8h-160zM424 144h32v8h-32zM200 152h168v8h-168zM424 152h32v8h-32zM192 160h112v8h-112zM344 160h32v8h-32zM416 160h40v8h-40zM176 168h120v8h-120zM352 168h32v8h-32zM408 168h40v8h-40zM168 176h128v8h-128zM352 176h88v8h-88zM168 184h128v8h-128zM352 184h80v8h-80zM144 192h160v8h-160zM344 192h88v8h-88zM136 200h176v8h-176zM336 200h72v8h-72zM136 208h80v8h-80zM240 208h88v8h-88zM336 208h8v8h-8zM392 208h8v8h-8zM136 216h72v8h-72zM248 216h72v8h-72zM136 224h72v8h-72zM248 224h72v8h-72zM136 232h64v8h-64zM248 232h72v8h-72zM120 240h80v8h-80zM240 240h80v8h-80zM120 248h80v8h-80zM240 248h80v8h-80zM112 256h96v8h-96zM232 256h88v8h-88zM112 264h208v8h-208zM112 272h208v8h-208zM328 272h8v8h-8zM112 280h224v8h-224zM112 288h232v8h-232zM112 296h240v8h-240zM112 304h168v8h-168zM296 304h56v8h-56zM104 312h176v8h-176zM296 312h64v8h-64zM88 320h280v8h-280zM88 328h288v8h-288zM88 336h64v8h-64zM176 336h200v8h-200zM88 344h56v8h-56zM184 344h192v8h-192zM88 352h56v8h-56zM184 352h88v8h-88zM296 352h72v8h-72zM88 360h56v8h-56zM184 360h80v8h-80zM296 360h64v8h-64zM88 368h56v8h-56zM184 368h80v8h-80zM304 368h56v8h-56zM400 368h8v8h-8zM88 376h56v8h-56zM184 376h80v8h-80zM312 376h48v8h-48zM408 376h8v8h-8zM88 384h64v8h-64zM176 384h88v8h-88zM328 384h40v8h-40zM408 384h8v8h-8zM88 392h176v8h-176zM328 392h40v8h-40zM408 392h24v8h-24zM88 400h184v8h-184zM336 400h40v8h-40zM416 400h24v8h-24zM104 408h184v8h-184zM344 408h32v8h-32zM424 408h24v8h-24zM112 416h56v8h-56zM192 416h104v8h-104zM424 416h16v8h-16zM112 424h48v8h-48zM200 424h96v8h-96zM424 424h16v8h-16zM112 432h48v8h-48zM200 432h96v8h-96zM416 432h24v8h-24zM112 440h48v8h-48zM200 440h104v8h-104zM400 440h40v8h-40zM120 448h40v8h-40zM200 448h120v8h-120zM400 448h40v8h-40zM136 456h32v8h-32zM192 456h128v8h-128zM400 456h32v8h-32zM144 464h176v8h-176zM384 464h40v8h-40zM144 472h176v8h-176zM376 472h48v8h-48zM144 480h72v8h-72zM248 480h72v8h-72zM376 480h40v8h-40zM136 488h80v8h-80zM256 488h24v8h-24zM384 488h24v8h-24zM128 496h88v8h-88zM256 496h16v8h-16zM120 504h96v8h-96zM256 504h16v8h-16zM112 512h104v8h-104zM256 512h16v8h-16zM80 520h8v8h-8zM104 520h112v8h-112zM256 520h24v8h-24zM80 528h128v8h-128zM256 528h48v8h-48zM72 536h96v8h-96zM256 536h48v8h-48zM56 544h104v8h-104zM256 544h48v8h-48zM48 552h112v8h-112zM256 552h56v8h-56zM56 560h64v8h-64zM136 560h8v8h-8zM256 560h64v8h-64zM64 568h48v8h-48zM256 568h64v8h-64zM64 576h48v8h-48zM256 576h64v8h-64zM56 584h56v8h-56zM256 584h64v8h-64zM56 592h64v8h-64zM136 592h16v8h-16zM256 592h64v8h-64zM72 600h88v8h-88zM264 600h64v8h-64zM80 608h80v8h-80zM264 608h96v8h-96zM88 616h72v8h-72zM264 616h56v8h-56zM96 624h56v8h-56zM264 624h56v8h-56z"/>
<rect width="496" height="680" fill="url(#hF)" clip-path="url(#cHF)"/>
<rect width="496" height="680" fill="url(#hB)" clip-path="url(#cHB)"/>
<path fill="currentColor" opacity=".96" d="M336 96h40v8h-40zM424 96h16v8h-16zM328 104h56v8h-56zM416 104h24v8h-24zM328 112h16v8h-16zM368 112h16v8h-16zM416 112h16v8h-16zM328 120h56v8h-56zM416 120h24v8h-24zM336 128h80v8h-80zM424 128h16v8h-16zM368 136h56v8h-56zM368 144h16v8h-16zM408 144h16v8h-16zM368 152h24v8h-24zM400 152h24v8h-24zM304 160h40v8h-40zM376 160h40v8h-40zM296 168h56v8h-56zM384 168h24v8h-24zM296 176h16v8h-16zM336 176h16v8h-16zM296 184h24v8h-24zM328 184h24v8h-24zM304 192h40v8h-40zM312 200h24v8h-24zM216 208h24v8h-24zM208 216h40v8h-40zM208 224h8v8h-8zM232 224h16v8h-16zM200 232h16v8h-16zM224 232h24v8h-24zM200 240h16v8h-16zM224 240h16v8h-16zM200 248h40v8h-40zM208 256h24v8h-24zM152 336h24v8h-24zM144 344h40v8h-40zM144 352h16v8h-16zM168 352h16v8h-16zM368 352h16v8h-16zM144 360h16v8h-16zM168 360h16v8h-16zM360 360h40v8h-40zM144 368h16v8h-16zM168 368h16v8h-16zM360 368h16v8h-16zM392 368h8v8h-8zM144 376h40v8h-40zM360 376h24v8h-24zM392 376h16v8h-16zM152 384h24v8h-24zM368 384h16v8h-16zM392 384h16v8h-16zM368 392h40v8h-40zM376 400h40v8h-40zM376 408h48v8h-48zM168 416h24v8h-24zM368 416h16v8h-16zM408 416h16v8h-16zM160 424h40v8h-40zM368 424h16v8h-16zM392 424h32v8h-32zM160 432h16v8h-16zM184 432h16v8h-16zM376 432h40v8h-40zM160 440h16v8h-16zM184 440h16v8h-16zM384 440h16v8h-16zM160 448h40v8h-40zM168 456h24v8h-24zM280 488h40v8h-40zM272 496h48v8h-48zM272 504h16v8h-16zM312 504h8v8h-8zM272 512h48v8h-48zM280 520h40v8h-40zM120 560h16v8h-16zM112 568h24v8h-24zM112 576h16v8h-16zM112 584h24v8h-24zM120 592h16v8h-16z"/>
</svg>